<?xml version="1.0" encoding="iso-8859-1"?>
<!-- Generator: Adobe Illustrator 16.0.0, SVG Export Plug-In . SVG Version: 6.00 Build 0)  -->
<!DOCTYPE svg PUBLIC "-//W3C//DTD SVG 1.1//EN" "http://www.w3.org/Graphics/SVG/1.1/DTD/svg11.dtd">
<svg version="1.1" xmlns="http://www.w3.org/2000/svg" xmlns:xlink="http://www.w3.org/1999/xlink" x="0px" y="0px"
	 width="100.709px" height="47.953px" viewBox="0 0 100.709 47.953" style="enable-background:new 0 0 100.709 47.953;"
	 xml:space="preserve">
<g id="Layer_2">
	<rect x="-261.891" y="-252.968" style="fill:#212E32;" width="248.002" height="83.001"/>
	<rect x="1.109" y="-252.969" style="fill:#212E32;" width="248.002" height="179.002"/>
	<rect x="267.109" y="-252.969" style="fill:#DEDEDE;" width="248.002" height="179.002"/>
	<rect x="-261.891" y="-156.969" style="fill:#DEDEDE;" width="248.002" height="83.002"/>
</g>
<g id="Layer_1">
	<g>
		<path style="fill:#DEDEDE;" d="M-207.179-208.376c0-0.017,0.001-0.032,0.002-0.049l0.001-1.838c0-0.366-0.006-1.041-0.007-1.338
			c-0.419-4.462-2.528-7.226-4.171-8.67c-1.646-1.383-3.594-2.313-5.506-2.545c-0.745-0.091-1.016-0.071-1.65-0.071
			c1,0.178,2.224,0.835,3.219,1.713c1.966,1.738,3.208,4.294,3.574,8.039c0.11,0.868,0.126,1.474,0.126,1.6
			c0.017,0.145,0.028,0.753,0.028,0.87v2.807c0,0,0,0.004,0,0.008c0,0.052,0,0.407,0,2.363c0,0.404,0,0.878,0,1.434
			c0,4.163,4.384,4.378,4.384,4.378l0.002-8.699H-207.179z"/>
		<path style="fill:#DEDEDE;" d="M-197.425-213.987c0.003-0.028,0.003-0.052,0.007-0.079v-1.687c0-0.083,0.004-0.163,0.013-0.245
			c-0.219-2.263-1.25-3.841-2.253-4.867c-1.34,1.291-2.174,3.103-2.174,5.111c0,2.972,1.826,5.514,4.415,6.575v-4.81H-197.425z"/>
		<path style="fill:#DEDEDE;" d="M-187.94-217.423c-0.098-0.692-0.383-1.376-0.707-1.974c-0.248,0.255-0.476,0.527-0.532,0.714
			c-0.57,1.867,1.566,7.522,1.566,7.522h0.007c-0.118-0.967-0.121-1.857-0.121-1.931
			C-187.726-213.118-187.666-215.483-187.94-217.423z"/>
		<path style="fill:#DEDEDE;" d="M-214.993-220.883c0.021,0.017,0.04,0.037,0.059,0.054
			C-214.954-220.846-214.974-220.867-214.993-220.883z"/>
		<path style="fill:#DEDEDE;" d="M-173.276-224.654c0,0.023-0.004,0.102-0.004,0.125c0,0.021,0,0.041,0,0.062
			c0,0.781,0,3.897,0,4.113v0.001l0,0c-1.97-1.551-4.452-2.479-7.155-2.479c-2.711,0-5.204,0.934-7.177,2.496l-0.278,0.234
			c0,0-0.034,0.029-0.091,0.078c0.062,0.097,0.111,0.181,0.144,0.247c0.243,0.48,0.976,1.942,0.976,3.96c0,0.517,0.01,1,0.022,1.434
			c1.145-2.391,3.563-4.03,6.403-4.03c3.541,0,6.481,2.573,7.054,5.954c0.002,0.006,0.005,0.014,0.005,0.018h-0.003
			c0.048,0.282,0.079,0.567,0.093,0.854c0.246,2.474,0.282,7.055-2.258,9.892c-0.689,0.769-1.523,1.356-2.497,1.764
			c5.245-1.103,9.183-5.75,9.183-11.324v-13.211v-0.187v-1.722v-2.584C-168.859-228.96-173.224-228.746-173.276-224.654z"/>
		<path style="fill:#DEDEDE;" d="M-216.665-218.163c2.079,0.864,2.792,1.61,3.909,3.285c-0.499-2.679-1.527-4.582-4.208-6.513
			c-2.375-1.712-6.224-1.988-8.991-0.691c-2.224,1.042-4.413,2.998-4.413,6.007c0,4.688,3.135,6.231,6.892,6.838
			c2.498,0.404,3.179,1.724,3.179,2.932c0,0.52-0.243,2.173-2.914,2.173c-4.665-0.044-5.703-4.374-5.703-4.374
			s-2.181,2.78-0.317,5.719c1.201,1.685,3.374,3.114,6.746,3.114c5.409,0,7.134-4.223,7.134-6.662c0-2.864-1.631-6.013-5.397-6.899
			c-1.958-0.442-4.442-0.587-4.442-2.826C-225.19-218.854-220.268-219.662-216.665-218.163z"/>
		<polygon style="fill:#DEDEDE;" points="-212.337,-214.172 -212.337,-214.172 -212.337,-214.172 		"/>
		<path style="fill:#DEDEDE;" d="M-200.643-221.726c-1.109-0.716-2.43-1.13-3.845-1.13c-1.572,0-3.023,0.51-4.2,1.373
			c-0.413,0.302-0.944,0.775-1.393,1.26c0.997,1.137,2.074,2.647,2.902,4.527v-0.062c0-1.483,1.313-2.686,2.656-2.686
			c1.486,0,2.69,1.206,2.69,2.691v6.591c0,0,0,0.413,0,0.387v0.692c-0.004,0.004-0.007,0.317-0.007,0.317c0,0.054,0,0.576,0,3.039
			c0,0.049,0,0.094,0,0.144c0,0.167,0,0.339,0,0.526c0,4.163,4.42,4.378,4.42,4.378v-4.905v-0.144v-9.262h-0.005
			c0.001-0.025,0.003-0.045,0.005-0.067v-1.008c0-0.227,0-0.458,0-0.689c0-0.106,0.006-0.211,0.007-0.316
			C-197.725-219.061-199.462-220.844-200.643-221.726z"/>
		<path style="fill:#DEDEDE;" d="M-174.222-206.932c0.047-0.3,0.081-0.623,0.102-0.954c-1.204,2.254-3.579,3.789-6.315,3.789
			c-3.862,0-7.004-3.039-7.146-6.865c-0.008-0.059-0.024-0.428-0.024-0.428c-0.112-0.95,0-4.18-0.335-6.033
			c-0.144-0.783-0.466-1.57-0.845-2.22c-1.27-1.936-3.456-3.213-5.943-3.213c-1.614,0-3.1,0.54-4.293,1.446
			c0.896,0.923,1.733,2.178,2.279,3.88c0.492-0.56,1.211-0.914,2.016-0.914c1.485,0,2.688,1.206,2.688,2.691l0,4.089
			c-0.003,0.136,0,0.255,0,0.409c0,5.711,4.156,10.451,9.601,11.4c1.913,0.041,3.555-0.215,5.551-1.802
			C-175.623-202.663-174.576-204.734-174.222-206.932z"/>
	</g>
	<g>
		<path style="fill:#DEDEDE;" d="M-149.223-215.331c0.281,0.896,1.479,1.09,2.342,1.09c0.917,0,2.341-0.281,2.341-1.37
			c0-0.938-1.133-1.014-2.319-1.111c-1.489-0.119-3.086-0.259-3.086-1.866c0-1.424,1.64-2.061,2.956-2.061
			c1.133,0,2.546,0.27,2.999,1.5c0.162,0.432-0.571,0.625-0.733,0.259c-0.323-0.82-1.478-0.96-2.255-0.96
			c-0.723,0-2.125,0.291-2.125,1.273c0,0.938,1.079,1.036,2.33,1.133c1.479,0.129,3.063,0.205,3.063,1.823
			c0,1.65-1.845,2.157-3.171,2.157c-1.101,0-2.783-0.377-3.14-1.672C-150.15-215.611-149.309-215.773-149.223-215.331z"/>
		<path style="fill:#DEDEDE;" d="M-142.541-220.347c0-0.54,0.81-0.529,0.81,0v6.451c0,0.496-0.81,0.518-0.81,0V-220.347z"/>
		<path style="fill:#DEDEDE;" d="M-139.875-215.331c0.28,0.896,1.478,1.09,2.341,1.09c0.917,0,2.341-0.281,2.341-1.37
			c0-0.938-1.133-1.014-2.319-1.111c-1.489-0.119-3.086-0.259-3.086-1.866c0-1.424,1.64-2.061,2.956-2.061
			c1.133,0,2.546,0.27,2.999,1.5c0.162,0.432-0.571,0.625-0.733,0.259c-0.323-0.82-1.478-0.96-2.255-0.96
			c-0.723,0-2.125,0.291-2.125,1.273c0,0.938,1.079,1.036,2.33,1.133c1.479,0.129,3.063,0.205,3.063,1.823
			c0,1.65-1.845,2.157-3.171,2.157c-1.101,0-2.783-0.377-3.14-1.672C-140.804-215.611-139.962-215.773-139.875-215.331z"/>
		<path style="fill:#DEDEDE;" d="M-128.318-220.498c0.529,0,0.529,0.745,0,0.745h-2.405c0,1.942,0.011,3.916,0.011,5.858
			c0,0.27-0.227,0.399-0.41,0.399s-0.388-0.129-0.388-0.399v-5.858h-2.396c-0.507,0-0.507-0.745,0-0.745H-128.318z"/>
		<path style="fill:#DEDEDE;" d="M-126.211-214.338h4.261c0.453,0,0.519,0.712,0,0.712h-4.541c-0.303,0-0.496-0.216-0.496-0.475
			v-5.923c0-0.248,0.193-0.464,0.496-0.464h4.552c0.465,0,0.442,0.69-0.011,0.69h-4.261v2.427h4.057c0.431,0,0.453,0.69,0,0.69
			h-4.057V-214.338z"/>
		<path style="fill:#DEDEDE;" d="M-114.093-220.325c0.248-0.389,0.744-0.259,0.744,0.194v6.214c0,0.518-0.788,0.518-0.788,0v-4.908
			l-2.2,3.441c-0.173,0.313-0.583,0.313-0.744,0l-2.201-3.431v4.897c0,0.518-0.787,0.518-0.787,0v-6.214
			c0-0.464,0.518-0.583,0.733-0.194l2.632,4.099L-114.093-220.325z"/>
		<path style="fill:#DEDEDE;" d="M-110.647-215.438l-0.874,1.705c-0.194,0.399-0.906,0.119-0.712-0.313l3.258-6.418
			c0.065-0.141,0.216-0.205,0.356-0.205c0.14,0,0.27,0.064,0.345,0.205l3.247,6.386c0.281,0.464-0.518,0.733-0.723,0.313
			l-0.841-1.672H-110.647z M-108.619-219.516l-1.705,3.398h3.398L-108.619-219.516z"/>
		<path style="fill:#DEDEDE;" d="M-103.697-215.331c0.281,0.896,1.479,1.09,2.342,1.09c0.917,0,2.341-0.281,2.341-1.37
			c0-0.938-1.133-1.014-2.319-1.111c-1.489-0.119-3.086-0.259-3.086-1.866c0-1.424,1.64-2.061,2.956-2.061
			c1.133,0,2.546,0.27,2.999,1.5c0.162,0.432-0.571,0.625-0.733,0.259c-0.323-0.82-1.478-0.96-2.255-0.96
			c-0.723,0-2.125,0.291-2.125,1.273c0,0.938,1.079,1.036,2.33,1.133c1.479,0.129,3.063,0.205,3.063,1.823
			c0,1.65-1.845,2.157-3.171,2.157c-1.101,0-2.783-0.377-3.14-1.672C-104.625-215.611-103.783-215.773-103.697-215.331z"/>
		<path style="fill:#DEDEDE;" d="M-93.217-214.338h4.261c0.453,0,0.519,0.712,0,0.712h-4.541c-0.303,0-0.496-0.216-0.496-0.475
			v-5.923c0-0.248,0.193-0.464,0.496-0.464h4.552c0.465,0,0.442,0.69-0.011,0.69h-4.261v2.427h4.057c0.431,0,0.453,0.69,0,0.69
			h-4.057V-214.338z"/>
		<path style="fill:#DEDEDE;" d="M-78.152-220.325c0.248-0.389,0.744-0.259,0.744,0.194v6.214c0,0.518-0.788,0.518-0.788,0v-4.908
			l-2.2,3.441c-0.173,0.313-0.583,0.313-0.744,0l-2.201-3.431v4.897c0,0.518-0.787,0.518-0.787,0v-6.214
			c0-0.464,0.518-0.583,0.733-0.194l2.632,4.099L-78.152-220.325z"/>
		<path style="fill:#DEDEDE;" d="M-75.57-220.347c0-0.54,0.81-0.529,0.81,0v6.451c0,0.496-0.81,0.518-0.81,0V-220.347z
			 M-74.696-222.375c0.323-0.432,0.971,0,0.626,0.356l-0.874,0.874c-0.367,0.313-0.755-0.065-0.55-0.345L-74.696-222.375z"/>
		<path style="fill:#DEDEDE;" d="M-72.797-213.626c-0.27,0-0.496-0.216-0.496-0.464v-5.944c0-0.248,0.227-0.453,0.496-0.453h2.352
			c2.147,0,3.215,1.715,3.215,3.431s-1.067,3.431-3.215,3.431H-72.797z M-72.517-214.327h2.071c1.618,0,2.428-1.37,2.428-2.729
			s-0.81-2.74-2.428-2.74h-2.071V-214.327z"/>
		<path style="fill:#DEDEDE;" d="M-65.879-220.347c0-0.54,0.81-0.529,0.81,0v6.451c0,0.496-0.81,0.518-0.81,0V-220.347z"/>
		<path style="fill:#DEDEDE;" d="M-62.642-215.438l-0.874,1.705c-0.194,0.399-0.906,0.119-0.712-0.313l3.258-6.418
			c0.065-0.141,0.216-0.205,0.356-0.205c0.14,0,0.27,0.064,0.345,0.205l3.247,6.386c0.281,0.464-0.518,0.733-0.723,0.313
			l-0.841-1.672H-62.642z M-60.613-219.516l-1.705,3.398h3.398L-60.613-219.516z"/>
		<path style="fill:#DEDEDE;" d="M-55.691-215.331c0.281,0.896,1.479,1.09,2.342,1.09c0.917,0,2.341-0.281,2.341-1.37
			c0-0.938-1.133-1.014-2.319-1.111c-1.489-0.119-3.086-0.259-3.086-1.866c0-1.424,1.64-2.061,2.956-2.061
			c1.133,0,2.546,0.27,2.999,1.5c0.162,0.432-0.571,0.625-0.733,0.259c-0.323-0.82-1.478-0.96-2.255-0.96
			c-0.723,0-2.125,0.291-2.125,1.273c0,0.938,1.079,1.036,2.33,1.133c1.479,0.129,3.063,0.205,3.063,1.823
			c0,1.65-1.845,2.157-3.171,2.157c-1.101,0-2.783-0.377-3.14-1.672C-56.619-215.611-55.777-215.773-55.691-215.331z"/>
	</g>
	<g>
		<path style="fill:#DEDEDE;" d="M-148.849-202.584c-0.27,0-0.496-0.216-0.496-0.464v-5.944c0-0.248,0.227-0.453,0.496-0.453h2.352
			c2.147,0,3.215,1.715,3.215,3.431s-1.067,3.431-3.215,3.431H-148.849z M-148.568-203.285h2.071c1.618,0,2.428-1.37,2.428-2.729
			s-0.81-2.74-2.428-2.74h-2.071V-203.285z"/>
		<path style="fill:#DEDEDE;" d="M-133.836-209.305c0-0.54,0.81-0.529,0.81,0v6.451c0,0.496-0.81,0.518-0.81,0V-209.305z"/>
		<path style="fill:#DEDEDE;" d="M-117.573-203.781c-0.636,0.841-1.704,1.305-2.751,1.294c-1.855-0.011-3.452-1.554-3.408-3.592
			c0-1.64,1.229-3.14,2.88-3.452c0.162-0.022,0.367-0.033,0.562-0.033c0.938,0,1.941,0.324,2.535,1.014
			c0.323,0.377-0.227,0.896-0.562,0.507c-0.604-0.702-1.607-0.95-2.416-0.745c-1.187,0.281-2.223,1.327-2.223,2.74
			c0.021,1.521,1.251,2.794,2.644,2.826c0.798,0.011,1.629-0.334,2.104-0.971v-1.435h-1.942c-0.507,0-0.453-0.712,0-0.712h2.287
			c0.313,0,0.41,0.162,0.41,0.399v1.801C-117.454-204.019-117.476-203.878-117.573-203.781z"/>
		<path style="fill:#DEDEDE;" d="M-107.662-209.305c0-0.54,0.81-0.529,0.81,0v6.451c0,0.496-0.81,0.518-0.81,0V-209.305z"/>
		<path style="fill:#DEDEDE;" d="M-92.091-209.456c0.529,0,0.529,0.745,0,0.745h-2.405c0,1.942,0.011,3.916,0.011,5.858
			c0,0.27-0.227,0.399-0.41,0.399s-0.388-0.129-0.388-0.399v-5.858h-2.396c-0.507,0-0.507-0.745,0-0.745H-92.091z"/>
		<path style="fill:#DEDEDE;" d="M-82.881-204.396l-0.874,1.705c-0.194,0.399-0.906,0.119-0.712-0.313l3.258-6.418
			c0.065-0.141,0.216-0.205,0.356-0.205c0.14,0,0.27,0.064,0.345,0.205l3.247,6.386c0.281,0.464-0.518,0.733-0.723,0.313
			l-0.841-1.672H-82.881z M-80.853-208.474l-1.705,3.398h3.398L-80.853-208.474z"/>
		<path style="fill:#DEDEDE;" d="M-68.127-209.305c0-0.54,0.81-0.529,0.81,0v6.451c0,0.496-0.81,0.518-0.81,0V-209.305z"/>
		<path style="fill:#DEDEDE;" d="M-57.367-204.289c0.281,0.896,1.479,1.09,2.342,1.09c0.917,0,2.341-0.281,2.341-1.37
			c0-0.938-1.133-1.014-2.319-1.111c-1.489-0.119-3.086-0.259-3.086-1.866c0-1.424,1.64-2.061,2.956-2.061
			c1.133,0,2.546,0.27,2.999,1.5c0.162,0.432-0.571,0.625-0.733,0.259c-0.323-0.82-1.478-0.96-2.255-0.96
			c-0.723,0-2.125,0.291-2.125,1.273c0,0.938,1.079,1.036,2.33,1.133c1.479,0.129,3.063,0.205,3.063,1.823
			c0,1.65-1.845,2.157-3.171,2.157c-1.101,0-2.783-0.377-3.14-1.672C-58.295-204.569-57.453-204.731-57.367-204.289z"/>
	</g>
	<rect x="-150.258" y="-293.83" style="fill:none;" width="107.034" height="30.982"/>
	<text transform="matrix(1 0 0 1 -150.2578 -286.1675)" style="fill:#DEDEDE; font-family:'Hero'; font-size:10.7934;">SISTEMAS E M&#xCD;DIAS</text>
	<rect x="-153.002" y="-282.788" style="fill:none;" width="104.812" height="14.496"/>
	
		<text transform="matrix(1 0 0 1 -148.5244 -275.1255)" style="fill:#DEDEDE; font-family:'Hero'; font-size:10.7934; letter-spacing:8;">DIGITAIS</text>
	<g>
		<path style="fill:#DEDEDE;" d="M111.136-173.609c0-0.027,0.003-0.052,0.003-0.081l0.003-3.009c0-0.598-0.009-1.704-0.013-2.19
			c-0.686-7.308-4.138-11.833-6.828-14.196c-2.696-2.266-5.885-3.79-9.016-4.169c-1.22-0.148-1.662-0.116-2.703-0.116
			c1.64,0.292,3.642,1.369,5.271,2.806c3.219,2.846,5.253,7.03,5.852,13.161c0.181,1.423,0.207,2.415,0.207,2.62
			c0.028,0.235,0.047,1.232,0.047,1.425v4.596c0,0,0,0.006,0,0.013c0,0.084,0,0.668,0,3.869c0,0.661,0,1.439,0,2.347
			c0,6.816,7.177,7.171,7.177,7.171l0.003-14.245H111.136z"/>
		<path style="fill:#DEDEDE;" d="M127.107-182.795c0.005-0.047,0.005-0.086,0.012-0.13v-2.761c0-0.135,0.006-0.268,0.021-0.4
			c-0.358-3.706-2.045-6.29-3.688-7.969c-2.194,2.114-3.562,5.082-3.562,8.37c0,4.864,2.99,9.027,7.229,10.765v-7.874H127.107z"/>
		<path style="fill:#DEDEDE;" d="M142.639-188.422c-0.162-1.134-0.629-2.253-1.158-3.231c-0.406,0.417-0.78,0.863-0.869,1.169
			c-0.934,3.056,2.564,12.316,2.564,12.316h0.009c-0.191-1.582-0.197-3.041-0.197-3.162
			C142.987-181.371,143.086-185.244,142.639-188.422z"/>
		<path style="fill:#DEDEDE;" d="M98.342-194.087c0.035,0.025,0.066,0.061,0.097,0.086
			C98.408-194.026,98.374-194.062,98.342-194.087z"/>
		<path style="fill:#DEDEDE;" d="M166.648-200.262c-0.002,0.039-0.006,0.168-0.006,0.205c0,0.035,0,0.067,0,0.103
			c0,1.279,0,6.381,0,6.734v0.002l0,0c-3.228-2.539-7.291-4.06-11.718-4.06c-4.438,0-8.519,1.529-11.749,4.087l-0.457,0.383
			c0,0-0.055,0.048-0.147,0.126c0.099,0.159,0.181,0.296,0.235,0.405c0.397,0.786,1.598,3.18,1.598,6.485
			c0,0.845,0.018,1.638,0.038,2.348c1.874-3.914,5.833-6.599,10.482-6.599c5.798,0,10.612,4.213,11.551,9.75
			c0.003,0.009,0.009,0.022,0.009,0.029h-0.006c0.079,0.459,0.129,0.927,0.15,1.397c0.403,4.052,0.464,11.551-3.697,16.195
			c-1.128,1.262-2.494,2.222-4.086,2.89c8.587-1.808,15.033-9.416,15.033-18.543v-21.63v-0.307v-2.817v-4.232
			C173.879-207.312,166.731-206.962,166.648-200.262z"/>
		<path style="fill:#DEDEDE;" d="M95.606-189.632c3.402,1.414,4.57,2.635,6.399,5.379c-0.815-4.388-2.501-7.503-6.89-10.666
			c-3.888-2.805-10.19-3.256-14.722-1.132c-3.642,1.708-7.225,4.909-7.225,9.837c0,7.676,5.133,10.201,11.284,11.196
			c4.09,0.659,5.204,2.822,5.204,4.8c0,0.85-0.396,3.557-4.771,3.557c-7.636-0.07-9.336-7.161-9.336-7.161s-3.57,4.552-0.52,9.364
			c1.967,2.759,5.524,5.1,11.045,5.1c8.855,0,11.681-6.914,11.681-10.907c0-4.688-2.672-9.846-8.837-11.295
			c-3.208-0.727-7.272-0.963-7.272-4.628C81.647-190.765,89.707-192.088,95.606-189.632z"/>
		<polygon style="fill:#DEDEDE;" points="102.69,-183.1 102.69,-183.1 102.69,-183.1 		"/>
		<path style="fill:#DEDEDE;" d="M121.839-195.469c-1.815-1.172-3.978-1.848-6.296-1.848c-2.573,0-4.949,0.834-6.876,2.248
			c-0.678,0.494-1.548,1.268-2.282,2.063c1.633,1.861,3.396,4.333,4.751,7.412v-0.102c0-2.428,2.148-4.397,4.349-4.397
			c2.435,0,4.405,1.975,4.405,4.407v10.792c0,0,0,0.676,0,0.635v1.133c-0.006,0.009-0.012,0.52-0.012,0.52c0,0.089,0,0.942,0,4.976
			c0,0.081,0,0.153,0,0.233c0,0.275,0,0.557,0,0.862c0,6.816,7.237,7.171,7.237,7.171v-8.033v-0.233v-15.164h-0.008
			c0.002-0.041,0.005-0.075,0.008-0.111v-1.65c0-0.371,0-0.752,0-1.129c0-0.173,0.01-0.346,0.013-0.519
			C126.617-191.103,123.771-194.023,121.839-195.469z"/>
		<path style="fill:#DEDEDE;" d="M165.099-171.244c0.078-0.492,0.133-1.021,0.166-1.563c-1.971,3.692-5.859,6.202-10.34,6.202
			c-6.322,0-11.468-4.976-11.697-11.239c-0.015-0.096-0.043-0.699-0.043-0.699c-0.182-1.556,0-6.845-0.546-9.878
			c-0.236-1.282-0.765-2.571-1.386-3.634c-2.078-3.169-5.658-5.261-9.73-5.261c-2.642,0-5.075,0.883-7.029,2.367
			c1.469,1.513,2.837,3.567,3.732,6.354c0.806-0.918,1.981-1.497,3.301-1.497c2.432,0,4.401,1.975,4.401,4.407l-0.002,6.696
			c-0.004,0.222,0.002,0.416,0.002,0.668c0,9.353,6.806,17.112,15.719,18.667c3.131,0.066,5.82-0.354,9.089-2.951
			C162.805-164.256,164.519-167.647,165.099-171.244z"/>
	</g>
	<g>
		<path style="fill:#DEDEDE;" d="M75.769-142.469c0.281,0.895,1.479,1.09,2.342,1.09c0.917,0,2.341-0.281,2.341-1.371
			c0-0.938-1.133-1.014-2.319-1.111c-1.489-0.118-3.086-0.258-3.086-1.865c0-1.425,1.64-2.061,2.956-2.061
			c1.133,0,2.546,0.27,2.999,1.499c0.162,0.432-0.571,0.626-0.733,0.259c-0.323-0.82-1.478-0.96-2.255-0.96
			c-0.723,0-2.125,0.291-2.125,1.272c0,0.939,1.079,1.036,2.33,1.133c1.479,0.13,3.063,0.205,3.063,1.824
			c0,1.65-1.845,2.156-3.171,2.156c-1.101,0-2.783-0.377-3.14-1.672C74.841-142.75,75.683-142.912,75.769-142.469z"/>
		<path style="fill:#DEDEDE;" d="M82.45-147.485c0-0.54,0.81-0.528,0.81,0v6.451c0,0.496-0.81,0.518-0.81,0V-147.485z"/>
		<path style="fill:#DEDEDE;" d="M85.116-142.469c0.28,0.895,1.478,1.09,2.341,1.09c0.917,0,2.341-0.281,2.341-1.371
			c0-0.938-1.133-1.014-2.319-1.111c-1.489-0.118-3.086-0.258-3.086-1.865c0-1.425,1.64-2.061,2.956-2.061
			c1.133,0,2.546,0.27,2.999,1.499c0.162,0.432-0.571,0.626-0.733,0.259c-0.323-0.82-1.478-0.96-2.255-0.96
			c-0.723,0-2.125,0.291-2.125,1.272c0,0.939,1.079,1.036,2.33,1.133c1.479,0.13,3.063,0.205,3.063,1.824
			c0,1.65-1.845,2.156-3.171,2.156c-1.101,0-2.783-0.377-3.14-1.672C84.188-142.75,85.029-142.912,85.116-142.469z"/>
		<path style="fill:#DEDEDE;" d="M96.673-147.637c0.529,0,0.529,0.744,0,0.744h-2.405c0,1.942,0.011,3.916,0.011,5.858
			c0,0.27-0.227,0.399-0.41,0.399s-0.388-0.13-0.388-0.399v-5.858h-2.396c-0.507,0-0.507-0.744,0-0.744H96.673z"/>
		<path style="fill:#DEDEDE;" d="M98.78-141.477h4.261c0.453,0,0.519,0.712,0,0.712H98.5c-0.303,0-0.496-0.216-0.496-0.475v-5.923
			c0-0.248,0.193-0.464,0.496-0.464h4.552c0.465,0,0.442,0.69-0.011,0.69H98.78v2.428h4.057c0.431,0,0.453,0.689,0,0.689H98.78
			V-141.477z"/>
		<path style="fill:#DEDEDE;" d="M110.898-147.464c0.248-0.389,0.744-0.259,0.744,0.194v6.213c0,0.519-0.788,0.519-0.788,0v-4.908
			l-2.2,3.441c-0.173,0.313-0.583,0.313-0.744,0l-2.201-3.43v4.896c0,0.519-0.787,0.519-0.787,0v-6.213
			c0-0.465,0.518-0.583,0.733-0.194l2.632,4.099L110.898-147.464z"/>
		<path style="fill:#DEDEDE;" d="M114.344-142.577l-0.874,1.704c-0.194,0.4-0.906,0.119-0.712-0.313l3.258-6.418
			c0.065-0.141,0.216-0.205,0.356-0.205c0.14,0,0.27,0.064,0.345,0.205l3.247,6.386c0.281,0.464-0.518,0.733-0.723,0.313
			l-0.841-1.673H114.344z M116.372-146.654l-1.705,3.397h3.398L116.372-146.654z"/>
		<path style="fill:#DEDEDE;" d="M121.294-142.469c0.281,0.895,1.479,1.09,2.342,1.09c0.917,0,2.341-0.281,2.341-1.371
			c0-0.938-1.133-1.014-2.319-1.111c-1.489-0.118-3.086-0.258-3.086-1.865c0-1.425,1.64-2.061,2.956-2.061
			c1.133,0,2.546,0.27,2.999,1.499c0.162,0.432-0.571,0.626-0.733,0.259c-0.323-0.82-1.478-0.96-2.255-0.96
			c-0.723,0-2.125,0.291-2.125,1.272c0,0.939,1.079,1.036,2.33,1.133c1.479,0.13,3.063,0.205,3.063,1.824
			c0,1.65-1.845,2.156-3.171,2.156c-1.101,0-2.783-0.377-3.14-1.672C120.366-142.75,121.208-142.912,121.294-142.469z"/>
		<path style="fill:#DEDEDE;" d="M131.774-141.477h4.261c0.453,0,0.519,0.712,0,0.712h-4.541c-0.303,0-0.496-0.216-0.496-0.475
			v-5.923c0-0.248,0.193-0.464,0.496-0.464h4.552c0.465,0,0.442,0.69-0.011,0.69h-4.261v2.428h4.057c0.431,0,0.453,0.689,0,0.689
			h-4.057V-141.477z"/>
		<path style="fill:#DEDEDE;" d="M146.839-147.464c0.248-0.389,0.744-0.259,0.744,0.194v6.213c0,0.519-0.788,0.519-0.788,0v-4.908
			l-2.2,3.441c-0.173,0.313-0.583,0.313-0.744,0l-2.201-3.43v4.896c0,0.519-0.787,0.519-0.787,0v-6.213
			c0-0.465,0.518-0.583,0.733-0.194l2.632,4.099L146.839-147.464z"/>
		<path style="fill:#DEDEDE;" d="M149.421-147.485c0-0.54,0.81-0.528,0.81,0v6.451c0,0.496-0.81,0.518-0.81,0V-147.485z
			 M150.295-149.514c0.323-0.432,0.971,0,0.626,0.355l-0.874,0.875c-0.367,0.313-0.755-0.065-0.55-0.346L150.295-149.514z"/>
		<path style="fill:#DEDEDE;" d="M152.194-140.765c-0.27,0-0.496-0.216-0.496-0.464v-5.944c0-0.248,0.227-0.453,0.496-0.453h2.352
			c2.147,0,3.215,1.716,3.215,3.431s-1.067,3.431-3.215,3.431H152.194z M152.475-141.466h2.071c1.618,0,2.428-1.37,2.428-2.729
			s-0.81-2.74-2.428-2.74h-2.071V-141.466z"/>
		<path style="fill:#DEDEDE;" d="M159.112-147.485c0-0.54,0.81-0.528,0.81,0v6.451c0,0.496-0.81,0.518-0.81,0V-147.485z"/>
		<path style="fill:#DEDEDE;" d="M162.35-142.577l-0.874,1.704c-0.194,0.4-0.906,0.119-0.712-0.313l3.258-6.418
			c0.065-0.141,0.216-0.205,0.356-0.205c0.14,0,0.27,0.064,0.345,0.205l3.247,6.386c0.281,0.464-0.518,0.733-0.723,0.313
			l-0.841-1.673H162.35z M164.378-146.654l-1.705,3.397h3.398L164.378-146.654z"/>
		<path style="fill:#DEDEDE;" d="M169.3-142.469c0.281,0.895,1.479,1.09,2.342,1.09c0.917,0,2.341-0.281,2.341-1.371
			c0-0.938-1.133-1.014-2.319-1.111c-1.489-0.118-3.086-0.258-3.086-1.865c0-1.425,1.64-2.061,2.956-2.061
			c1.133,0,2.546,0.27,2.999,1.499c0.162,0.432-0.571,0.626-0.733,0.259c-0.323-0.82-1.478-0.96-2.255-0.96
			c-0.723,0-2.125,0.291-2.125,1.272c0,0.939,1.079,1.036,2.33,1.133c1.479,0.13,3.063,0.205,3.063,1.824
			c0,1.65-1.845,2.156-3.171,2.156c-1.101,0-2.783-0.377-3.14-1.672C168.372-142.75,169.214-142.912,169.3-142.469z"/>
	</g>
	<g>
		<path style="fill:#DEDEDE;" d="M76.501-129.723c-0.27,0-0.496-0.216-0.496-0.464v-5.944c0-0.248,0.227-0.453,0.496-0.453h2.352
			c2.147,0,3.215,1.715,3.215,3.431s-1.067,3.431-3.215,3.431H76.501z M76.781-130.424h2.071c1.618,0,2.428-1.37,2.428-2.729
			s-0.81-2.74-2.428-2.74h-2.071V-130.424z"/>
		<path style="fill:#DEDEDE;" d="M91.622-136.443c0-0.539,0.81-0.529,0.81,0v6.451c0,0.496-0.81,0.518-0.81,0V-136.443z"/>
		<path style="fill:#DEDEDE;" d="M107.992-130.92c-0.636,0.842-1.704,1.305-2.751,1.295c-1.855-0.012-3.452-1.555-3.408-3.593
			c0-1.64,1.229-3.14,2.88-3.452c0.162-0.021,0.367-0.033,0.562-0.033c0.938,0,1.941,0.324,2.535,1.015
			c0.323,0.378-0.227,0.896-0.562,0.507c-0.604-0.701-1.607-0.949-2.416-0.744c-1.187,0.281-2.223,1.327-2.223,2.74
			c0.021,1.521,1.251,2.794,2.644,2.826c0.798,0.012,1.629-0.334,2.104-0.971v-1.435h-1.942c-0.507,0-0.453-0.712,0-0.712h2.287
			c0.313,0,0.41,0.162,0.41,0.398v1.802C108.111-131.157,108.09-131.018,107.992-130.92z"/>
		<path style="fill:#DEDEDE;" d="M118.012-136.443c0-0.539,0.81-0.529,0.81,0v6.451c0,0.496-0.81,0.518-0.81,0V-136.443z"/>
		<path style="fill:#DEDEDE;" d="M133.69-136.595c0.529,0,0.529,0.745,0,0.745h-2.405c0,1.941,0.011,3.916,0.011,5.857
			c0,0.27-0.227,0.398-0.41,0.398s-0.388-0.129-0.388-0.398v-5.857h-2.396c-0.507,0-0.507-0.745,0-0.745H133.69z"/>
		<path style="fill:#DEDEDE;" d="M143.008-131.535l-0.874,1.705c-0.194,0.398-0.906,0.118-0.712-0.313l3.258-6.419
			c0.065-0.141,0.216-0.205,0.356-0.205c0.14,0,0.27,0.064,0.345,0.205l3.247,6.387c0.281,0.464-0.518,0.733-0.723,0.313
			l-0.841-1.672H143.008z M145.036-135.613l-1.705,3.398h3.398L145.036-135.613z"/>
		<path style="fill:#DEDEDE;" d="M157.87-136.443c0-0.539,0.81-0.529,0.81,0v6.451c0,0.496-0.81,0.518-0.81,0V-136.443z"/>
		<path style="fill:#DEDEDE;" d="M168.739-131.428c0.28,0.896,1.478,1.09,2.341,1.09c0.917,0,2.341-0.28,2.341-1.369
			c0-0.939-1.133-1.015-2.319-1.111c-1.489-0.119-3.086-0.26-3.086-1.867c0-1.424,1.64-2.061,2.956-2.061
			c1.133,0,2.546,0.27,2.999,1.5c0.162,0.432-0.571,0.625-0.733,0.259c-0.323-0.819-1.478-0.96-2.255-0.96
			c-0.723,0-2.125,0.291-2.125,1.273c0,0.938,1.079,1.035,2.33,1.133c1.479,0.129,3.063,0.205,3.063,1.822
			c0,1.65-1.845,2.158-3.171,2.158c-1.101,0-2.783-0.378-3.14-1.672C167.811-131.707,168.652-131.869,168.739-131.428z"/>
	</g>
	<rect x="71.47" y="-293.279" style="fill:none;" width="107.034" height="30.982"/>
	<text transform="matrix(1 0 0 1 81.3174 -285.6167)" style="fill:#DEDEDE; font-family:'Hero'; font-size:10.7934;">SISTEMAS E M&#xCD;DIAS</text>
	<rect x="72.726" y="-282.237" style="fill:none;" width="104.812" height="14.496"/>
	
		<text transform="matrix(1 0 0 1 76.8252 -274.5747)" style="fill:#DEDEDE; font-family:'Hero'; font-size:10.7934; letter-spacing:8;">DIGITAIS</text>
	<g>
		<path style="fill:#212E32;" d="M377.136-173.609c0-0.027,0.003-0.052,0.003-0.081l0.003-3.009c0-0.598-0.009-1.704-0.013-2.19
			c-0.686-7.308-4.138-11.833-6.828-14.196c-2.696-2.266-5.885-3.79-9.016-4.169c-1.22-0.148-1.662-0.116-2.703-0.116
			c1.64,0.292,3.642,1.369,5.271,2.806c3.219,2.846,5.253,7.03,5.852,13.161c0.181,1.423,0.207,2.415,0.207,2.62
			c0.028,0.235,0.047,1.232,0.047,1.425v4.596c0,0,0,0.006,0,0.013c0,0.084,0,0.668,0,3.869c0,0.661,0,1.439,0,2.347
			c0,6.816,7.177,7.171,7.177,7.171l0.003-14.245H377.136z"/>
		<path style="fill:#212E32;" d="M393.107-182.795c0.005-0.047,0.005-0.086,0.012-0.13v-2.761c0-0.135,0.006-0.268,0.021-0.4
			c-0.358-3.706-2.045-6.29-3.688-7.969c-2.194,2.114-3.562,5.082-3.562,8.37c0,4.864,2.99,9.027,7.229,10.765v-7.874H393.107z"/>
		<path style="fill:#212E32;" d="M408.639-188.422c-0.162-1.134-0.629-2.253-1.158-3.231c-0.406,0.417-0.78,0.863-0.869,1.169
			c-0.934,3.056,2.564,12.316,2.564,12.316h0.009c-0.191-1.582-0.197-3.041-0.197-3.162
			C408.987-181.371,409.086-185.244,408.639-188.422z"/>
		<path style="fill:#212E32;" d="M364.342-194.087c0.035,0.025,0.066,0.061,0.097,0.086
			C364.408-194.026,364.374-194.062,364.342-194.087z"/>
		<path style="fill:#212E32;" d="M432.648-200.262c-0.002,0.039-0.006,0.168-0.006,0.205c0,0.035,0,0.067,0,0.103
			c0,1.279,0,6.381,0,6.734v0.002l0,0c-3.228-2.539-7.291-4.06-11.718-4.06c-4.438,0-8.519,1.529-11.749,4.087l-0.457,0.383
			c0,0-0.055,0.048-0.147,0.126c0.099,0.159,0.181,0.296,0.235,0.405c0.397,0.786,1.598,3.18,1.598,6.485
			c0,0.845,0.018,1.638,0.038,2.348c1.874-3.914,5.833-6.599,10.482-6.599c5.798,0,10.612,4.213,11.551,9.75
			c0.003,0.009,0.009,0.022,0.009,0.029h-0.006c0.079,0.459,0.129,0.927,0.15,1.397c0.403,4.052,0.464,11.551-3.697,16.195
			c-1.128,1.262-2.494,2.222-4.086,2.89c8.587-1.808,15.033-9.416,15.033-18.543v-21.63v-0.307v-2.817v-4.232
			C439.879-207.312,432.731-206.962,432.648-200.262z"/>
		<path style="fill:#212E32;" d="M361.606-189.632c3.402,1.414,4.57,2.635,6.399,5.379c-0.815-4.388-2.501-7.503-6.89-10.666
			c-3.888-2.805-10.19-3.256-14.722-1.132c-3.642,1.708-7.225,4.909-7.225,9.837c0,7.676,5.133,10.201,11.284,11.196
			c4.09,0.659,5.204,2.822,5.204,4.8c0,0.85-0.396,3.557-4.771,3.557c-7.636-0.07-9.336-7.161-9.336-7.161s-3.57,4.552-0.52,9.364
			c1.967,2.759,5.524,5.1,11.045,5.1c8.855,0,11.681-6.914,11.681-10.907c0-4.688-2.672-9.846-8.837-11.295
			c-3.208-0.727-7.272-0.963-7.272-4.628C347.647-190.765,355.707-192.088,361.606-189.632z"/>
		<polygon style="fill:#212E32;" points="368.69,-183.1 368.69,-183.1 368.69,-183.1 		"/>
		<path style="fill:#212E32;" d="M387.839-195.469c-1.815-1.172-3.978-1.848-6.296-1.848c-2.573,0-4.949,0.834-6.876,2.248
			c-0.678,0.494-1.548,1.268-2.282,2.063c1.633,1.861,3.396,4.333,4.751,7.412v-0.102c0-2.428,2.148-4.397,4.349-4.397
			c2.435,0,4.405,1.975,4.405,4.407v10.792c0,0,0,0.676,0,0.635v1.133c-0.006,0.009-0.012,0.52-0.012,0.52c0,0.089,0,0.942,0,4.976
			c0,0.081,0,0.153,0,0.233c0,0.275,0,0.557,0,0.862c0,6.816,7.237,7.171,7.237,7.171v-8.033v-0.233v-15.164h-0.008
			c0.002-0.041,0.005-0.075,0.008-0.111v-1.65c0-0.371,0-0.752,0-1.129c0-0.173,0.01-0.346,0.013-0.519
			C392.617-191.103,389.771-194.023,387.839-195.469z"/>
		<path style="fill:#212E32;" d="M431.099-171.244c0.078-0.492,0.133-1.021,0.166-1.563c-1.971,3.692-5.859,6.202-10.34,6.202
			c-6.322,0-11.468-4.976-11.697-11.239c-0.015-0.096-0.043-0.699-0.043-0.699c-0.182-1.556,0-6.845-0.546-9.878
			c-0.236-1.282-0.765-2.571-1.386-3.634c-2.078-3.169-5.658-5.261-9.73-5.261c-2.642,0-5.075,0.883-7.029,2.367
			c1.469,1.513,2.837,3.567,3.732,6.354c0.806-0.918,1.981-1.497,3.301-1.497c2.432,0,4.401,1.975,4.401,4.407l-0.002,6.696
			c-0.004,0.222,0.002,0.416,0.002,0.668c0,9.353,6.806,17.112,15.719,18.667c3.131,0.066,5.82-0.354,9.089-2.951
			C428.805-164.256,430.519-167.647,431.099-171.244z"/>
	</g>
	<g>
		<path style="fill:#212E32;" d="M37.966,33.702c0-0.027,0.003-0.052,0.003-0.081l0.003-3.009c0-0.598-0.009-1.704-0.013-2.19
			c-0.686-7.308-4.138-11.833-6.828-14.196c-2.696-2.266-5.885-3.79-9.016-4.169c-1.22-0.148-1.662-0.116-2.703-0.116
			c1.64,0.292,3.642,1.368,5.271,2.806c3.219,2.846,5.253,7.03,5.852,13.161c0.181,1.423,0.207,2.415,0.207,2.62
			c0.028,0.235,0.047,1.232,0.047,1.425v4.596c0,0,0,0.006,0,0.013c0,0.084,0,0.668,0,3.869c0,0.661,0,1.439,0,2.347
			c0,6.816,7.177,7.171,7.177,7.171l0.003-14.245H37.966z"/>
		<path style="fill:#212E32;" d="M53.938,24.517c0.005-0.047,0.005-0.086,0.012-0.13v-2.761c0-0.135,0.006-0.268,0.021-0.4
			c-0.358-3.706-2.045-6.29-3.688-7.97c-2.194,2.114-3.562,5.082-3.562,8.37c0,4.864,2.99,9.027,7.229,10.765v-7.874H53.938z"/>
		<path style="fill:#212E32;" d="M69.469,18.89c-0.162-1.134-0.629-2.253-1.158-3.231c-0.406,0.417-0.78,0.863-0.869,1.169
			c-0.934,3.056,2.564,12.316,2.564,12.316h0.009c-0.191-1.582-0.197-3.041-0.197-3.162C69.817,25.94,69.916,22.067,69.469,18.89z"
			/>
		<path style="fill:#212E32;" d="M25.172,13.225c0.035,0.025,0.066,0.061,0.097,0.086C25.238,13.285,25.204,13.25,25.172,13.225z"/>
		<path style="fill:#212E32;" d="M93.479,7.049c-0.002,0.039-0.006,0.168-0.006,0.205c0,0.035,0,0.067,0,0.103
			c0,1.278,0,6.382,0,6.734v0.002l0,0c-3.228-2.539-7.291-4.06-11.718-4.06c-4.438,0-8.519,1.528-11.749,4.087l-0.457,0.384
			c0,0-0.055,0.048-0.147,0.126c0.099,0.159,0.181,0.296,0.235,0.405c0.397,0.785,1.598,3.18,1.598,6.484
			c0,0.845,0.018,1.638,0.038,2.348c1.874-3.914,5.833-6.6,10.482-6.6c5.798,0,10.612,4.214,11.551,9.75
			c0.003,0.009,0.009,0.022,0.009,0.029h-0.006c0.079,0.459,0.129,0.927,0.15,1.397c0.403,4.052,0.464,11.551-3.697,16.195
			c-1.128,1.262-2.494,2.222-4.086,2.89c8.587-1.808,15.033-9.416,15.033-18.543V7.356V7.049V4.232V0
			C100.709,0,93.562,0.35,93.479,7.049z"/>
		<path style="fill:#212E32;" d="M22.437,17.68c3.402,1.413,4.57,2.635,6.399,5.379c-0.815-4.388-2.501-7.503-6.89-10.666
			c-3.888-2.805-10.19-3.256-14.722-1.132C3.583,12.969,0,16.17,0,21.098c0,7.676,5.133,10.201,11.284,11.196
			c4.09,0.659,5.204,2.822,5.204,4.8c0,0.85-0.396,3.557-4.771,3.557c-7.636-0.07-9.336-7.161-9.336-7.161s-3.57,4.552-0.52,9.364
			c1.967,2.759,5.524,5.1,11.045,5.1c8.855,0,11.681-6.914,11.681-10.907c0-4.688-2.672-9.846-8.837-11.295
			c-3.208-0.727-7.272-0.963-7.272-4.628C8.478,16.547,16.537,15.223,22.437,17.68z"/>
		<polygon style="fill:#212E32;" points="29.521,24.212 29.521,24.212 29.521,24.212 		"/>
		<path style="fill:#212E32;" d="M48.669,11.843c-1.815-1.172-3.978-1.849-6.296-1.849c-2.573,0-4.949,0.835-6.876,2.248
			c-0.678,0.494-1.548,1.269-2.282,2.063c1.633,1.86,3.396,4.333,4.751,7.412v-0.102c0-2.428,2.148-4.397,4.349-4.397
			c2.435,0,4.405,1.975,4.405,4.407v10.792c0,0,0,0.676,0,0.635v1.133c-0.006,0.009-0.012,0.52-0.012,0.52c0,0.089,0,0.942,0,4.976
			c0,0.081,0,0.153,0,0.233c0,0.275,0,0.557,0,0.862c0,6.816,7.237,7.171,7.237,7.171v-8.033v-0.233V24.517h-0.008
			c0.002-0.041,0.005-0.075,0.008-0.111v-1.65c0-0.371,0-0.752,0-1.129c0-0.173,0.01-0.346,0.013-0.519
			C53.447,16.209,50.601,13.289,48.669,11.843z"/>
		<path style="fill:#212E32;" d="M91.929,36.067c0.078-0.492,0.133-1.021,0.166-1.563c-1.971,3.692-5.859,6.202-10.34,6.202
			c-6.322,0-11.468-4.976-11.697-11.239c-0.015-0.096-0.043-0.699-0.043-0.699c-0.182-1.556,0-6.845-0.546-9.878
			c-0.236-1.282-0.765-2.571-1.386-3.634c-2.078-3.17-5.658-5.262-9.73-5.262c-2.642,0-5.075,0.883-7.029,2.367
			c1.469,1.513,2.837,3.567,3.732,6.354c0.806-0.918,1.981-1.497,3.301-1.497c2.432,0,4.401,1.975,4.401,4.407l-0.002,6.696
			c-0.004,0.222,0.002,0.416,0.002,0.668c0,9.353,6.806,17.112,15.719,18.667c3.131,0.066,5.82-0.354,9.089-2.951
			C89.635,43.056,91.349,39.664,91.929,36.067z"/>
	</g>
	<g>
		<path style="fill:#212E32;" d="M341.769-142.469c0.281,0.895,1.479,1.09,2.342,1.09c0.917,0,2.341-0.281,2.341-1.371
			c0-0.938-1.133-1.014-2.319-1.111c-1.489-0.118-3.086-0.258-3.086-1.865c0-1.425,1.64-2.061,2.956-2.061
			c1.133,0,2.546,0.27,2.999,1.499c0.162,0.432-0.571,0.626-0.733,0.259c-0.323-0.82-1.478-0.96-2.255-0.96
			c-0.723,0-2.125,0.291-2.125,1.272c0,0.939,1.079,1.036,2.33,1.133c1.479,0.13,3.063,0.205,3.063,1.824
			c0,1.65-1.845,2.156-3.171,2.156c-1.101,0-2.783-0.377-3.14-1.672C340.841-142.75,341.683-142.912,341.769-142.469z"/>
		<path style="fill:#212E32;" d="M348.45-147.485c0-0.54,0.81-0.528,0.81,0v6.451c0,0.496-0.81,0.518-0.81,0V-147.485z"/>
		<path style="fill:#212E32;" d="M351.116-142.469c0.28,0.895,1.478,1.09,2.341,1.09c0.917,0,2.341-0.281,2.341-1.371
			c0-0.938-1.133-1.014-2.319-1.111c-1.489-0.118-3.086-0.258-3.086-1.865c0-1.425,1.64-2.061,2.956-2.061
			c1.133,0,2.546,0.27,2.999,1.499c0.162,0.432-0.571,0.626-0.733,0.259c-0.323-0.82-1.478-0.96-2.255-0.96
			c-0.723,0-2.125,0.291-2.125,1.272c0,0.939,1.079,1.036,2.33,1.133c1.479,0.13,3.063,0.205,3.063,1.824
			c0,1.65-1.845,2.156-3.171,2.156c-1.101,0-2.783-0.377-3.14-1.672C350.188-142.75,351.029-142.912,351.116-142.469z"/>
		<path style="fill:#212E32;" d="M362.673-147.637c0.529,0,0.529,0.744,0,0.744h-2.405c0,1.942,0.011,3.916,0.011,5.858
			c0,0.27-0.227,0.399-0.41,0.399s-0.388-0.13-0.388-0.399v-5.858h-2.396c-0.507,0-0.507-0.744,0-0.744H362.673z"/>
		<path style="fill:#212E32;" d="M364.78-141.477h4.261c0.453,0,0.519,0.712,0,0.712H364.5c-0.303,0-0.496-0.216-0.496-0.475v-5.923
			c0-0.248,0.193-0.464,0.496-0.464h4.552c0.465,0,0.442,0.69-0.011,0.69h-4.261v2.428h4.057c0.431,0,0.453,0.689,0,0.689h-4.057
			V-141.477z"/>
		<path style="fill:#212E32;" d="M376.898-147.464c0.248-0.389,0.744-0.259,0.744,0.194v6.213c0,0.519-0.788,0.519-0.788,0v-4.908
			l-2.2,3.441c-0.173,0.313-0.583,0.313-0.744,0l-2.201-3.43v4.896c0,0.519-0.787,0.519-0.787,0v-6.213
			c0-0.465,0.518-0.583,0.733-0.194l2.632,4.099L376.898-147.464z"/>
		<path style="fill:#212E32;" d="M380.344-142.577l-0.874,1.704c-0.194,0.4-0.906,0.119-0.712-0.313l3.258-6.418
			c0.065-0.141,0.216-0.205,0.356-0.205c0.14,0,0.27,0.064,0.345,0.205l3.247,6.386c0.281,0.464-0.518,0.733-0.723,0.313
			l-0.841-1.673H380.344z M382.372-146.654l-1.705,3.397h3.398L382.372-146.654z"/>
		<path style="fill:#212E32;" d="M387.294-142.469c0.281,0.895,1.479,1.09,2.342,1.09c0.917,0,2.341-0.281,2.341-1.371
			c0-0.938-1.133-1.014-2.319-1.111c-1.489-0.118-3.086-0.258-3.086-1.865c0-1.425,1.64-2.061,2.956-2.061
			c1.133,0,2.546,0.27,2.999,1.499c0.162,0.432-0.571,0.626-0.733,0.259c-0.323-0.82-1.478-0.96-2.255-0.96
			c-0.723,0-2.125,0.291-2.125,1.272c0,0.939,1.079,1.036,2.33,1.133c1.479,0.13,3.063,0.205,3.063,1.824
			c0,1.65-1.845,2.156-3.171,2.156c-1.101,0-2.783-0.377-3.14-1.672C386.366-142.75,387.208-142.912,387.294-142.469z"/>
		<path style="fill:#212E32;" d="M397.774-141.477h4.261c0.453,0,0.519,0.712,0,0.712h-4.541c-0.303,0-0.496-0.216-0.496-0.475
			v-5.923c0-0.248,0.193-0.464,0.496-0.464h4.552c0.465,0,0.442,0.69-0.011,0.69h-4.261v2.428h4.057c0.431,0,0.453,0.689,0,0.689
			h-4.057V-141.477z"/>
		<path style="fill:#212E32;" d="M412.839-147.464c0.248-0.389,0.744-0.259,0.744,0.194v6.213c0,0.519-0.788,0.519-0.788,0v-4.908
			l-2.2,3.441c-0.173,0.313-0.583,0.313-0.744,0l-2.201-3.43v4.896c0,0.519-0.787,0.519-0.787,0v-6.213
			c0-0.465,0.518-0.583,0.733-0.194l2.632,4.099L412.839-147.464z"/>
		<path style="fill:#212E32;" d="M415.421-147.485c0-0.54,0.81-0.528,0.81,0v6.451c0,0.496-0.81,0.518-0.81,0V-147.485z
			 M416.295-149.514c0.323-0.432,0.971,0,0.626,0.355l-0.874,0.875c-0.367,0.313-0.755-0.065-0.55-0.346L416.295-149.514z"/>
		<path style="fill:#212E32;" d="M418.194-140.765c-0.27,0-0.496-0.216-0.496-0.464v-5.944c0-0.248,0.227-0.453,0.496-0.453h2.352
			c2.147,0,3.215,1.716,3.215,3.431s-1.067,3.431-3.215,3.431H418.194z M418.475-141.466h2.071c1.618,0,2.428-1.37,2.428-2.729
			s-0.81-2.74-2.428-2.74h-2.071V-141.466z"/>
		<path style="fill:#212E32;" d="M425.112-147.485c0-0.54,0.81-0.528,0.81,0v6.451c0,0.496-0.81,0.518-0.81,0V-147.485z"/>
		<path style="fill:#212E32;" d="M428.35-142.577l-0.874,1.704c-0.194,0.4-0.906,0.119-0.712-0.313l3.258-6.418
			c0.065-0.141,0.216-0.205,0.356-0.205c0.14,0,0.27,0.064,0.345,0.205l3.247,6.386c0.281,0.464-0.518,0.733-0.723,0.313
			l-0.841-1.673H428.35z M430.378-146.654l-1.705,3.397h3.398L430.378-146.654z"/>
		<path style="fill:#212E32;" d="M435.3-142.469c0.281,0.895,1.479,1.09,2.342,1.09c0.917,0,2.341-0.281,2.341-1.371
			c0-0.938-1.133-1.014-2.319-1.111c-1.489-0.118-3.086-0.258-3.086-1.865c0-1.425,1.64-2.061,2.956-2.061
			c1.133,0,2.546,0.27,2.999,1.499c0.162,0.432-0.571,0.626-0.733,0.259c-0.323-0.82-1.478-0.96-2.255-0.96
			c-0.723,0-2.125,0.291-2.125,1.272c0,0.939,1.079,1.036,2.33,1.133c1.479,0.13,3.063,0.205,3.063,1.824
			c0,1.65-1.845,2.156-3.171,2.156c-1.101,0-2.783-0.377-3.14-1.672C434.372-142.75,435.214-142.912,435.3-142.469z"/>
	</g>
	<g>
		<path style="fill:#212E32;" d="M342.501-129.723c-0.27,0-0.496-0.216-0.496-0.464v-5.944c0-0.248,0.227-0.453,0.496-0.453h2.352
			c2.147,0,3.215,1.715,3.215,3.431s-1.067,3.431-3.215,3.431H342.501z M342.781-130.424h2.071c1.618,0,2.428-1.37,2.428-2.729
			s-0.81-2.74-2.428-2.74h-2.071V-130.424z"/>
		<path style="fill:#212E32;" d="M357.622-136.443c0-0.539,0.81-0.529,0.81,0v6.451c0,0.496-0.81,0.518-0.81,0V-136.443z"/>
		<path style="fill:#212E32;" d="M373.992-130.92c-0.636,0.842-1.704,1.305-2.751,1.295c-1.855-0.012-3.452-1.555-3.408-3.593
			c0-1.64,1.229-3.14,2.88-3.452c0.162-0.021,0.367-0.033,0.562-0.033c0.938,0,1.941,0.324,2.535,1.015
			c0.323,0.378-0.227,0.896-0.562,0.507c-0.604-0.701-1.607-0.949-2.416-0.744c-1.187,0.281-2.223,1.327-2.223,2.74
			c0.021,1.521,1.251,2.794,2.644,2.826c0.798,0.012,1.629-0.334,2.104-0.971v-1.435h-1.942c-0.507,0-0.453-0.712,0-0.712h2.287
			c0.313,0,0.41,0.162,0.41,0.398v1.802C374.111-131.157,374.09-131.018,373.992-130.92z"/>
		<path style="fill:#212E32;" d="M384.012-136.443c0-0.539,0.81-0.529,0.81,0v6.451c0,0.496-0.81,0.518-0.81,0V-136.443z"/>
		<path style="fill:#212E32;" d="M399.69-136.595c0.529,0,0.529,0.745,0,0.745h-2.405c0,1.941,0.011,3.916,0.011,5.857
			c0,0.27-0.227,0.398-0.41,0.398s-0.388-0.129-0.388-0.398v-5.857h-2.396c-0.507,0-0.507-0.745,0-0.745H399.69z"/>
		<path style="fill:#212E32;" d="M409.008-131.535l-0.874,1.705c-0.194,0.398-0.906,0.118-0.712-0.313l3.258-6.419
			c0.065-0.141,0.216-0.205,0.356-0.205c0.14,0,0.27,0.064,0.345,0.205l3.247,6.387c0.281,0.464-0.518,0.733-0.723,0.313
			l-0.841-1.672H409.008z M411.036-135.613l-1.705,3.398h3.398L411.036-135.613z"/>
		<path style="fill:#212E32;" d="M423.87-136.443c0-0.539,0.81-0.529,0.81,0v6.451c0,0.496-0.81,0.518-0.81,0V-136.443z"/>
		<path style="fill:#212E32;" d="M434.739-131.428c0.28,0.896,1.478,1.09,2.341,1.09c0.917,0,2.341-0.28,2.341-1.369
			c0-0.939-1.133-1.015-2.319-1.111c-1.489-0.119-3.086-0.26-3.086-1.867c0-1.424,1.64-2.061,2.956-2.061
			c1.133,0,2.546,0.27,2.999,1.5c0.162,0.432-0.571,0.625-0.733,0.259c-0.323-0.819-1.478-0.96-2.255-0.96
			c-0.723,0-2.125,0.291-2.125,1.273c0,0.938,1.079,1.035,2.33,1.133c1.479,0.129,3.063,0.205,3.063,1.822
			c0,1.65-1.845,2.158-3.171,2.158c-1.101,0-2.783-0.378-3.14-1.672C433.811-131.707,434.652-131.869,434.739-131.428z"/>
	</g>
	<g>
		<path style="fill:#212E32;" d="M-207.179-112.376c0-0.017,0.001-0.032,0.002-0.05l0.001-1.838c0-0.365-0.006-1.041-0.007-1.338
			c-0.419-4.463-2.528-7.227-4.171-8.67c-1.646-1.384-3.594-2.314-5.506-2.546c-0.745-0.091-1.016-0.071-1.65-0.071
			c1,0.179,2.224,0.836,3.219,1.714c1.966,1.738,3.208,4.294,3.574,8.038c0.11,0.869,0.126,1.475,0.126,1.6
			c0.017,0.145,0.028,0.754,0.028,0.871v2.807c0,0,0,0.004,0,0.008c0,0.052,0,0.407,0,2.363c0,0.403,0,0.878,0,1.434
			c0,4.162,4.384,4.378,4.384,4.378l0.002-8.699H-207.179z"/>
		<path style="fill:#212E32;" d="M-197.425-117.986c0.003-0.028,0.003-0.053,0.007-0.079v-1.687c0-0.082,0.004-0.163,0.013-0.244
			c-0.219-2.264-1.25-3.842-2.253-4.867c-1.34,1.291-2.174,3.104-2.174,5.111c0,2.972,1.826,5.514,4.415,6.574v-4.809H-197.425z"/>
		<path style="fill:#212E32;" d="M-187.94-121.423c-0.098-0.692-0.383-1.376-0.707-1.974c-0.248,0.255-0.476,0.527-0.532,0.714
			c-0.57,1.866,1.566,7.522,1.566,7.522h0.007c-0.118-0.967-0.121-1.857-0.121-1.932
			C-187.726-117.117-187.666-119.482-187.94-121.423z"/>
		<path style="fill:#212E32;" d="M-214.993-124.883c0.021,0.016,0.04,0.037,0.059,0.053
			C-214.954-124.846-214.974-124.867-214.993-124.883z"/>
		<path style="fill:#212E32;" d="M-173.276-128.654c0,0.023-0.004,0.103-0.004,0.125c0,0.021,0,0.041,0,0.063
			c0,0.781,0,3.897,0,4.113v0.001l0,0c-1.97-1.551-4.452-2.479-7.155-2.479c-2.711,0-5.204,0.934-7.177,2.496l-0.278,0.234
			c0,0-0.034,0.029-0.091,0.077c0.062,0.097,0.111,0.181,0.144,0.247c0.243,0.48,0.976,1.942,0.976,3.961
			c0,0.516,0.01,1,0.022,1.434c1.145-2.391,3.563-4.03,6.403-4.03c3.541,0,6.481,2.573,7.054,5.954
			c0.002,0.006,0.005,0.014,0.005,0.018h-0.003c0.048,0.281,0.079,0.566,0.093,0.854c0.246,2.474,0.282,7.055-2.258,9.892
			c-0.689,0.77-1.523,1.356-2.497,1.764c5.245-1.104,9.183-5.75,9.183-11.324v-13.211v-0.188v-1.721v-2.585
			C-168.859-132.96-173.224-132.746-173.276-128.654z"/>
		<path style="fill:#212E32;" d="M-216.665-122.162c2.079,0.863,2.792,1.609,3.909,3.285c-0.499-2.68-1.527-4.582-4.208-6.514
			c-2.375-1.713-6.224-1.988-8.991-0.691c-2.224,1.043-4.413,2.998-4.413,6.008c0,4.688,3.135,6.23,6.892,6.838
			c2.498,0.403,3.179,1.724,3.179,2.932c0,0.52-0.243,2.173-2.914,2.173c-4.665-0.044-5.703-4.374-5.703-4.374
			s-2.181,2.779-0.317,5.719c1.201,1.686,3.374,3.115,6.746,3.115c5.409,0,7.134-4.223,7.134-6.662c0-2.863-1.631-6.014-5.397-6.898
			c-1.958-0.443-4.442-0.588-4.442-2.826C-225.19-122.854-220.268-123.662-216.665-122.162z"/>
		<polygon style="fill:#212E32;" points="-212.337,-118.172 -212.337,-118.172 -212.337,-118.172 		"/>
		<path style="fill:#212E32;" d="M-200.643-125.727c-1.109-0.716-2.43-1.129-3.845-1.129c-1.572,0-3.023,0.51-4.2,1.373
			c-0.413,0.302-0.944,0.774-1.393,1.26c0.997,1.137,2.074,2.646,2.902,4.527v-0.063c0-1.482,1.313-2.686,2.656-2.686
			c1.486,0,2.69,1.206,2.69,2.691v6.592c0,0,0,0.412,0,0.387v0.692c-0.004,0.005-0.007,0.317-0.007,0.317c0,0.055,0,0.576,0,3.039
			c0,0.049,0,0.094,0,0.143c0,0.168,0,0.34,0,0.527c0,4.162,4.42,4.378,4.42,4.378v-4.905v-0.143v-9.262h-0.005
			c0.001-0.025,0.003-0.046,0.005-0.068v-1.008c0-0.227,0-0.459,0-0.689c0-0.105,0.006-0.211,0.007-0.316
			C-197.725-123.061-199.462-124.844-200.643-125.727z"/>
		<path style="fill:#212E32;" d="M-174.222-110.932c0.047-0.3,0.081-0.623,0.102-0.954c-1.204,2.254-3.579,3.788-6.315,3.788
			c-3.862,0-7.004-3.039-7.146-6.865c-0.008-0.059-0.024-0.428-0.024-0.428c-0.112-0.949,0-4.18-0.335-6.032
			c-0.144-0.783-0.466-1.57-0.845-2.22c-1.27-1.936-3.456-3.213-5.943-3.213c-1.614,0-3.1,0.539-4.293,1.445
			c0.896,0.924,1.733,2.179,2.279,3.881c0.492-0.561,1.211-0.914,2.016-0.914c1.485,0,2.688,1.206,2.688,2.691l0,4.09
			c-0.003,0.136,0,0.254,0,0.408c0,5.712,4.156,10.451,9.601,11.4c1.913,0.041,3.555-0.215,5.551-1.802
			C-175.623-106.663-174.576-108.734-174.222-110.932z"/>
	</g>
	<g>
		<path style="fill:#212E32;" d="M-149.223-119.33c0.281,0.895,1.479,1.09,2.342,1.09c0.917,0,2.341-0.281,2.341-1.371
			c0-0.938-1.133-1.014-2.319-1.111c-1.489-0.118-3.086-0.258-3.086-1.865c0-1.425,1.64-2.061,2.956-2.061
			c1.133,0,2.546,0.27,2.999,1.499c0.162,0.432-0.571,0.626-0.733,0.259c-0.323-0.82-1.478-0.96-2.255-0.96
			c-0.723,0-2.125,0.291-2.125,1.272c0,0.939,1.079,1.036,2.33,1.133c1.479,0.13,3.063,0.205,3.063,1.824
			c0,1.65-1.845,2.156-3.171,2.156c-1.101,0-2.783-0.377-3.14-1.672C-150.15-119.611-149.309-119.773-149.223-119.33z"/>
		<path style="fill:#212E32;" d="M-142.541-124.347c0-0.54,0.81-0.528,0.81,0v6.451c0,0.496-0.81,0.518-0.81,0V-124.347z"/>
		<path style="fill:#212E32;" d="M-139.875-119.33c0.28,0.895,1.478,1.09,2.341,1.09c0.917,0,2.341-0.281,2.341-1.371
			c0-0.938-1.133-1.014-2.319-1.111c-1.489-0.118-3.086-0.258-3.086-1.865c0-1.425,1.64-2.061,2.956-2.061
			c1.133,0,2.546,0.27,2.999,1.499c0.162,0.432-0.571,0.626-0.733,0.259c-0.323-0.82-1.478-0.96-2.255-0.96
			c-0.723,0-2.125,0.291-2.125,1.272c0,0.939,1.079,1.036,2.33,1.133c1.479,0.13,3.063,0.205,3.063,1.824
			c0,1.65-1.845,2.156-3.171,2.156c-1.101,0-2.783-0.377-3.14-1.672C-140.804-119.611-139.962-119.773-139.875-119.33z"/>
		<path style="fill:#212E32;" d="M-128.318-124.498c0.529,0,0.529,0.744,0,0.744h-2.405c0,1.942,0.011,3.916,0.011,5.858
			c0,0.27-0.227,0.399-0.41,0.399s-0.388-0.13-0.388-0.399v-5.858h-2.396c-0.507,0-0.507-0.744,0-0.744H-128.318z"/>
		<path style="fill:#212E32;" d="M-126.211-118.338h4.261c0.453,0,0.519,0.712,0,0.712h-4.541c-0.303,0-0.496-0.216-0.496-0.475
			v-5.923c0-0.248,0.193-0.464,0.496-0.464h4.552c0.465,0,0.442,0.69-0.011,0.69h-4.261v2.428h4.057c0.431,0,0.453,0.689,0,0.689
			h-4.057V-118.338z"/>
		<path style="fill:#212E32;" d="M-114.093-124.325c0.248-0.389,0.744-0.259,0.744,0.194v6.213c0,0.519-0.788,0.519-0.788,0v-4.908
			l-2.2,3.441c-0.173,0.313-0.583,0.313-0.744,0l-2.201-3.43v4.896c0,0.519-0.787,0.519-0.787,0v-6.213
			c0-0.465,0.518-0.583,0.733-0.194l2.632,4.099L-114.093-124.325z"/>
		<path style="fill:#212E32;" d="M-110.647-119.438l-0.874,1.704c-0.194,0.4-0.906,0.119-0.712-0.313l3.258-6.418
			c0.065-0.141,0.216-0.205,0.356-0.205c0.14,0,0.27,0.064,0.345,0.205l3.247,6.386c0.281,0.464-0.518,0.733-0.723,0.313
			l-0.841-1.673H-110.647z M-108.619-123.516l-1.705,3.397h3.398L-108.619-123.516z"/>
		<path style="fill:#212E32;" d="M-103.697-119.33c0.281,0.895,1.479,1.09,2.342,1.09c0.917,0,2.341-0.281,2.341-1.371
			c0-0.938-1.133-1.014-2.319-1.111c-1.489-0.118-3.086-0.258-3.086-1.865c0-1.425,1.64-2.061,2.956-2.061
			c1.133,0,2.546,0.27,2.999,1.499c0.162,0.432-0.571,0.626-0.733,0.259c-0.323-0.82-1.478-0.96-2.255-0.96
			c-0.723,0-2.125,0.291-2.125,1.272c0,0.939,1.079,1.036,2.33,1.133c1.479,0.13,3.063,0.205,3.063,1.824
			c0,1.65-1.845,2.156-3.171,2.156c-1.101,0-2.783-0.377-3.14-1.672C-104.625-119.611-103.783-119.773-103.697-119.33z"/>
		<path style="fill:#212E32;" d="M-93.217-118.338h4.261c0.453,0,0.519,0.712,0,0.712h-4.541c-0.303,0-0.496-0.216-0.496-0.475
			v-5.923c0-0.248,0.193-0.464,0.496-0.464h4.552c0.465,0,0.442,0.69-0.011,0.69h-4.261v2.428h4.057c0.431,0,0.453,0.689,0,0.689
			h-4.057V-118.338z"/>
		<path style="fill:#212E32;" d="M-78.152-124.325c0.248-0.389,0.744-0.259,0.744,0.194v6.213c0,0.519-0.788,0.519-0.788,0v-4.908
			l-2.2,3.441c-0.173,0.313-0.583,0.313-0.744,0l-2.201-3.43v4.896c0,0.519-0.787,0.519-0.787,0v-6.213
			c0-0.465,0.518-0.583,0.733-0.194l2.632,4.099L-78.152-124.325z"/>
		<path style="fill:#212E32;" d="M-75.57-124.347c0-0.54,0.81-0.528,0.81,0v6.451c0,0.496-0.81,0.518-0.81,0V-124.347z
			 M-74.696-126.375c0.323-0.432,0.971,0,0.626,0.355l-0.874,0.875c-0.367,0.313-0.755-0.065-0.55-0.346L-74.696-126.375z"/>
		<path style="fill:#212E32;" d="M-72.797-117.626c-0.27,0-0.496-0.216-0.496-0.464v-5.944c0-0.248,0.227-0.453,0.496-0.453h2.352
			c2.147,0,3.215,1.716,3.215,3.431s-1.067,3.431-3.215,3.431H-72.797z M-72.517-118.327h2.071c1.618,0,2.428-1.37,2.428-2.729
			s-0.81-2.74-2.428-2.74h-2.071V-118.327z"/>
		<path style="fill:#212E32;" d="M-65.879-124.347c0-0.54,0.81-0.528,0.81,0v6.451c0,0.496-0.81,0.518-0.81,0V-124.347z"/>
		<path style="fill:#212E32;" d="M-62.642-119.438l-0.874,1.704c-0.194,0.4-0.906,0.119-0.712-0.313l3.258-6.418
			c0.065-0.141,0.216-0.205,0.356-0.205c0.14,0,0.27,0.064,0.345,0.205l3.247,6.386c0.281,0.464-0.518,0.733-0.723,0.313
			l-0.841-1.673H-62.642z M-60.613-123.516l-1.705,3.397h3.398L-60.613-123.516z"/>
		<path style="fill:#212E32;" d="M-55.691-119.33c0.281,0.895,1.479,1.09,2.342,1.09c0.917,0,2.341-0.281,2.341-1.371
			c0-0.938-1.133-1.014-2.319-1.111c-1.489-0.118-3.086-0.258-3.086-1.865c0-1.425,1.64-2.061,2.956-2.061
			c1.133,0,2.546,0.27,2.999,1.499c0.162,0.432-0.571,0.626-0.733,0.259c-0.323-0.82-1.478-0.96-2.255-0.96
			c-0.723,0-2.125,0.291-2.125,1.272c0,0.939,1.079,1.036,2.33,1.133c1.479,0.13,3.063,0.205,3.063,1.824
			c0,1.65-1.845,2.156-3.171,2.156c-1.101,0-2.783-0.377-3.14-1.672C-56.619-119.611-55.777-119.773-55.691-119.33z"/>
	</g>
	<g>
		<path style="fill:#212E32;" d="M-148.849-106.584c-0.27,0-0.496-0.216-0.496-0.464v-5.944c0-0.248,0.227-0.453,0.496-0.453h2.352
			c2.147,0,3.215,1.715,3.215,3.431s-1.067,3.431-3.215,3.431H-148.849z M-148.568-107.285h2.071c1.618,0,2.428-1.37,2.428-2.729
			s-0.81-2.74-2.428-2.74h-2.071V-107.285z"/>
		<path style="fill:#212E32;" d="M-133.836-113.305c0-0.539,0.81-0.529,0.81,0v6.451c0,0.496-0.81,0.518-0.81,0V-113.305z"/>
		<path style="fill:#212E32;" d="M-117.573-107.781c-0.636,0.842-1.704,1.305-2.751,1.295c-1.855-0.012-3.452-1.555-3.408-3.593
			c0-1.64,1.229-3.14,2.88-3.452c0.162-0.021,0.367-0.033,0.562-0.033c0.938,0,1.941,0.324,2.535,1.015
			c0.323,0.378-0.227,0.896-0.562,0.507c-0.604-0.701-1.607-0.949-2.416-0.744c-1.187,0.281-2.223,1.327-2.223,2.74
			c0.021,1.521,1.251,2.794,2.644,2.826c0.798,0.012,1.629-0.334,2.104-0.971v-1.435h-1.942c-0.507,0-0.453-0.712,0-0.712h2.287
			c0.313,0,0.41,0.162,0.41,0.398v1.802C-117.454-108.019-117.476-107.879-117.573-107.781z"/>
		<path style="fill:#212E32;" d="M-107.662-113.305c0-0.539,0.81-0.529,0.81,0v6.451c0,0.496-0.81,0.518-0.81,0V-113.305z"/>
		<path style="fill:#212E32;" d="M-92.091-113.456c0.529,0,0.529,0.745,0,0.745h-2.405c0,1.941,0.011,3.916,0.011,5.857
			c0,0.27-0.227,0.398-0.41,0.398s-0.388-0.129-0.388-0.398v-5.857h-2.396c-0.507,0-0.507-0.745,0-0.745H-92.091z"/>
		<path style="fill:#212E32;" d="M-82.881-108.396l-0.874,1.705c-0.194,0.398-0.906,0.118-0.712-0.313l3.258-6.419
			c0.065-0.141,0.216-0.205,0.356-0.205c0.14,0,0.27,0.064,0.345,0.205l3.247,6.387c0.281,0.464-0.518,0.733-0.723,0.313
			l-0.841-1.672H-82.881z M-80.853-112.475l-1.705,3.398h3.398L-80.853-112.475z"/>
		<path style="fill:#212E32;" d="M-68.127-113.305c0-0.539,0.81-0.529,0.81,0v6.451c0,0.496-0.81,0.518-0.81,0V-113.305z"/>
		<path style="fill:#212E32;" d="M-57.367-108.289c0.281,0.896,1.479,1.09,2.342,1.09c0.917,0,2.341-0.28,2.341-1.369
			c0-0.939-1.133-1.015-2.319-1.111c-1.489-0.119-3.086-0.26-3.086-1.867c0-1.424,1.64-2.061,2.956-2.061
			c1.133,0,2.546,0.27,2.999,1.5c0.162,0.432-0.571,0.625-0.733,0.259c-0.323-0.819-1.478-0.96-2.255-0.96
			c-0.723,0-2.125,0.291-2.125,1.273c0,0.938,1.079,1.035,2.33,1.133c1.479,0.129,3.063,0.205,3.063,1.822
			c0,1.65-1.845,2.158-3.171,2.158c-1.101,0-2.783-0.378-3.14-1.672C-58.295-108.568-57.453-108.73-57.367-108.289z"/>
	</g>
	<g>
		<path style="fill:#DEDEDE;" d="M-150.361,20.391c0-0.027,0.003-0.052,0.003-0.081l0.003-3.009c0-0.598-0.009-1.704-0.013-2.19
			c-0.686-7.308-4.138-11.833-6.828-14.196c-2.696-2.266-5.885-3.79-9.016-4.169c-1.22-0.148-1.662-0.116-2.703-0.116
			c1.64,0.293,3.642,1.369,5.271,2.806c3.219,2.847,5.253,7.03,5.852,13.161c0.181,1.423,0.207,2.415,0.207,2.62
			c0.028,0.235,0.047,1.232,0.047,1.425v4.596c0,0,0,0.006,0,0.013c0,0.084,0,0.668,0,3.869c0,0.661,0,1.439,0,2.347
			c0,6.816,7.177,7.171,7.177,7.171l0.003-14.245H-150.361z"/>
		<path style="fill:#DEDEDE;" d="M-134.39,11.205c0.005-0.047,0.005-0.086,0.012-0.13V8.314c0-0.135,0.006-0.268,0.021-0.4
			c-0.358-3.706-2.045-6.29-3.688-7.969c-2.194,2.113-3.562,5.081-3.562,8.369c0,4.864,2.99,9.027,7.229,10.765v-7.874H-134.39z"/>
		<path style="fill:#DEDEDE;" d="M-118.858,5.578c-0.162-1.134-0.629-2.253-1.158-3.231c-0.406,0.417-0.78,0.863-0.869,1.169
			c-0.934,3.056,2.564,12.316,2.564,12.316h0.009c-0.191-1.582-0.197-3.041-0.197-3.162C-118.51,12.629-118.411,8.756-118.858,5.578
			z"/>
		<path style="fill:#DEDEDE;" d="M-163.155-0.087c0.035,0.025,0.066,0.061,0.097,0.087C-163.089-0.026-163.123-0.062-163.155-0.087z
			"/>
		<path style="fill:#DEDEDE;" d="M-94.849-6.262c-0.002,0.038-0.006,0.168-0.006,0.204c0,0.035,0,0.067,0,0.103
			c0,1.279,0,6.381,0,6.734v0.002l0,0c-3.228-2.539-7.291-4.061-11.718-4.061c-4.438,0-8.519,1.529-11.749,4.088l-0.457,0.383
			c0,0-0.055,0.049-0.147,0.127c0.099,0.158,0.181,0.297,0.235,0.404c0.397,0.787,1.598,3.181,1.598,6.485
			c0,0.845,0.018,1.638,0.038,2.348c1.874-3.914,5.833-6.599,10.482-6.599c5.798,0,10.612,4.213,11.551,9.749
			c0.003,0.009,0.009,0.022,0.009,0.029h-0.006c0.079,0.459,0.129,0.927,0.15,1.397c0.403,4.052,0.464,11.551-3.697,16.195
			c-1.128,1.262-2.494,2.222-4.086,2.89c8.587-1.808,15.033-9.416,15.033-18.543v-21.63v-0.307V-9.08v-4.232
			C-87.618-13.313-94.766-12.962-94.849-6.262z"/>
		<path style="fill:#DEDEDE;" d="M-165.891,4.367c3.402,1.414,4.57,2.636,6.399,5.38c-0.815-4.388-2.501-7.503-6.89-10.665
			c-3.888-2.805-10.19-3.256-14.722-1.133c-3.642,1.708-7.225,4.909-7.225,9.837c0,7.676,5.133,10.201,11.284,11.196
			c4.09,0.659,5.204,2.822,5.204,4.8c0,0.85-0.396,3.557-4.771,3.557c-7.636-0.07-9.336-7.161-9.336-7.161s-3.57,4.552-0.52,9.364
			c1.967,2.759,5.524,5.1,11.045,5.1c8.855,0,11.681-6.914,11.681-10.907c0-4.688-2.672-9.846-8.837-11.295
			c-3.208-0.727-7.272-0.963-7.272-4.628C-179.85,3.235-171.79,1.912-165.891,4.367z"/>
		<polygon style="fill:#DEDEDE;" points="-158.807,10.9 -158.807,10.9 -158.807,10.9 		"/>
		<path style="fill:#DEDEDE;" d="M-139.658-1.469c-1.815-1.172-3.978-1.848-6.296-1.848c-2.573,0-4.949,0.834-6.876,2.248
			c-0.678,0.494-1.548,1.268-2.282,2.063c1.633,1.861,3.396,4.333,4.751,7.412V8.305c0-2.428,2.148-4.397,4.349-4.397
			c2.435,0,4.405,1.975,4.405,4.407v10.792c0,0,0,0.676,0,0.635v1.133c-0.006,0.009-0.012,0.52-0.012,0.52c0,0.089,0,0.942,0,4.976
			c0,0.081,0,0.153,0,0.233c0,0.275,0,0.557,0,0.862c0,6.816,7.237,7.171,7.237,7.171v-8.033v-0.233V11.205h-0.008
			c0.002-0.041,0.005-0.075,0.008-0.111v-1.65c0-0.371,0-0.752,0-1.129c0-0.173,0.01-0.346,0.013-0.519
			C-134.88,2.896-137.727-0.023-139.658-1.469z"/>
		<path style="fill:#DEDEDE;" d="M-96.398,22.756c0.078-0.492,0.133-1.021,0.166-1.563c-1.971,3.692-5.859,6.202-10.34,6.202
			c-6.322,0-11.468-4.976-11.697-11.239c-0.015-0.096-0.043-0.699-0.043-0.699c-0.182-1.556,0-6.845-0.546-9.878
			c-0.236-1.282-0.765-2.571-1.386-3.635c-2.078-3.169-5.658-5.26-9.73-5.26c-2.642,0-5.075,0.883-7.029,2.366
			c1.469,1.513,2.837,3.567,3.732,6.354c0.806-0.918,1.981-1.497,3.301-1.497c2.432,0,4.401,1.975,4.401,4.407l-0.002,6.696
			c-0.004,0.222,0.002,0.416,0.002,0.668c0,9.353,6.806,17.112,15.719,18.667c3.131,0.066,5.82-0.354,9.089-2.951
			C-98.692,29.744-96.979,26.353-96.398,22.756z"/>
	</g>
</g>
</svg>
